<svg width="256" height="314" viewBox="0 0 256 314" fill="none" xmlns="http://www.w3.org/2000/svg">
<g filter="url(#filter0_d_36_2)">
<rect x="5.5" y="1.5" width="245" height="303" rx="24.5" stroke="url(#paint0_linear_36_2)" stroke-width="3" shape-rendering="crispEdges"/>
</g>
<g filter="url(#filter1_d_36_2)">
<path d="M124.525 78L61 114.45V191.55L124.525 228V140.562L96.5125 157.175V180.075C96.575 180.769 96.575 181.481 96.5125 182.175C95.8688 184.894 93.1375 187.2 90.2625 189.119C85.25 192.475 79.3125 192.3 76.725 188.425C74.1438 184.55 75.8438 178.231 80.8875 174.875C83.2875 173.125 86.2812 172.381 89.225 172.8V119.369C89.225 118.406 90.0625 117.794 90.6375 117.444L124.525 96.75V78ZM129.75 78V116.513C133.338 116.7 136.875 117.512 140.175 118.931C142.117 118.949 144.042 118.559 145.825 117.787C147.607 117.015 149.208 115.878 150.525 114.45C149.984 113.677 149.621 112.794 149.463 111.864C149.304 110.934 149.354 109.98 149.609 109.072C149.864 108.164 150.317 107.323 150.936 106.611C151.555 105.899 152.324 105.334 153.188 104.955C154.052 104.576 154.989 104.394 155.932 104.421C156.875 104.449 157.8 104.685 158.641 105.113C159.482 105.542 160.217 106.151 160.793 106.898C161.37 107.644 161.773 108.51 161.975 109.431L162 109.469C162.239 110.557 162.189 111.689 161.855 112.752C161.521 113.815 160.915 114.772 160.097 115.528C159.278 116.285 158.277 116.814 157.191 117.063C156.105 117.313 154.972 117.274 153.906 116.95C151.781 119.469 148.956 121.312 145.8 122.262C147.925 123.906 149.806 125.863 151.369 128.062C153.027 127.677 154.771 127.957 156.225 128.844C161.025 131.881 159.775 139.2 154.238 140.45C148.7 141.7 144.4 135.638 147.425 130.831C147.55 130.644 147.688 130.456 147.831 130.269C145.526 127.099 142.432 124.587 138.856 122.981C135.987 121.664 132.901 120.882 129.75 120.675V145.738C135.094 146.113 137.6 148.819 139.469 150.95C140.887 152.55 141.694 153.388 143.081 153.463C145.1 153.575 146.631 153.513 148.119 153.463C149.984 153.355 151.855 153.401 153.713 153.6C159.588 153.494 161.663 152.188 163.744 150.812C165.829 149.285 168.255 148.292 170.813 147.919C170.984 147.338 171.236 146.785 171.562 146.275C171.757 145.972 171.977 145.685 172.219 145.419C172.363 145.262 172.513 145.144 172.656 145.006C171.374 140.078 171.374 134.903 172.656 129.975L172.581 129.912C171.492 128.902 170.789 127.544 170.595 126.071C170.401 124.598 170.727 123.103 171.518 121.846C172.308 120.588 173.513 119.645 174.924 119.181C176.336 118.717 177.865 118.761 179.248 119.304C180.63 119.848 181.78 120.857 182.497 122.158C183.215 123.459 183.456 124.969 183.178 126.429C182.901 127.888 182.122 129.205 180.977 130.151C179.832 131.098 178.392 131.615 176.906 131.612H176.55C175.684 135.475 175.684 139.481 176.55 143.344H176.944C177.932 143.345 178.906 143.576 179.789 144.018C180.673 144.46 181.441 145.102 182.034 145.892C182.627 146.682 183.029 147.599 183.207 148.571C183.384 149.542 183.334 150.542 183.059 151.491C182.785 152.44 182.293 153.312 181.624 154.039C180.954 154.765 180.125 155.326 179.202 155.677C178.279 156.029 177.286 156.16 176.303 156.062C175.32 155.964 174.373 155.639 173.538 155.113L173.244 154.906C172.26 154.216 171.496 153.257 171.044 152.144C169.196 152.466 167.452 153.224 165.956 154.356C164.598 155.306 163.121 156.073 161.562 156.637C166.294 160.106 172.638 166.637 175.306 171.006C175.829 170.871 176.366 170.801 176.906 170.8C177.897 170.797 178.875 171.024 179.762 171.465C180.649 171.905 181.422 172.546 182.018 173.337C182.615 174.128 183.018 175.047 183.198 176.022C183.377 176.996 183.327 177.999 183.051 178.95C182.775 179.901 182.281 180.775 181.609 181.503C180.936 182.23 180.103 182.791 179.176 183.14C178.249 183.49 177.254 183.618 176.268 183.516C175.283 183.413 174.335 183.083 173.5 182.55L173.206 182.363C171.875 181.419 170.958 180.001 170.643 178.4C170.329 176.799 170.643 175.139 171.519 173.762C171.616 173.606 171.722 173.456 171.838 173.312C169.056 168.469 159.175 159.062 156.462 158.394C153.792 157.704 151.026 157.457 148.275 157.662C146.775 157.713 145.069 157.775 142.862 157.662C139.644 157.494 137.969 155.581 136.344 153.731C134.719 151.881 133.156 150.231 129.75 149.912V193.625C130.668 193.451 131.562 193.168 132.412 192.781C132.528 192.713 132.649 192.657 132.775 192.612C136.275 190.944 141.656 186.925 145.875 177.319C144.601 176.378 143.722 174.997 143.41 173.445C143.098 171.892 143.375 170.278 144.188 168.919C144.752 167.968 145.554 167.18 146.515 166.633C147.476 166.086 148.562 165.798 149.668 165.798C150.774 165.798 151.861 166.085 152.822 166.632C153.783 167.179 154.585 167.966 155.15 168.917C155.715 169.867 156.022 170.949 156.043 172.054C156.064 173.16 155.797 174.251 155.268 175.222C154.739 176.194 153.966 177.01 153.026 177.593C152.086 178.175 151.011 178.503 149.906 178.544C147.877 183.564 144.829 188.11 140.956 191.894C142.516 192.216 143.988 192.868 145.275 193.806C145.918 194.388 146.726 194.755 147.588 194.856C149.493 194.653 151.361 194.186 153.137 193.469C152.967 192.109 153.24 190.73 153.915 189.537C154.59 188.344 155.632 187.4 156.885 186.846C158.139 186.292 159.538 186.156 160.875 186.46C162.212 186.764 163.415 187.49 164.306 188.531V188.5C165.098 189.425 165.608 190.558 165.776 191.764C165.944 192.969 165.763 194.198 165.255 195.305C164.747 196.411 163.932 197.349 162.908 198.007C161.884 198.665 160.693 199.016 159.475 199.019C157.8 199.033 156.186 198.389 154.981 197.225C152.654 198.193 150.192 198.798 147.681 199.019H147.369C145.752 198.897 144.208 198.299 142.931 197.3C141.294 196.194 139.744 195.144 134.169 196.55C132.781 197.223 131.285 197.646 129.75 197.8V228L193.275 191.55V114.45L129.75 78ZM155.713 108.65C155.249 108.659 154.801 108.814 154.431 109.092C154.061 109.371 153.789 109.759 153.652 110.201C153.516 110.644 153.522 111.118 153.671 111.557C153.82 111.995 154.104 112.376 154.481 112.644L154.594 112.706C155.612 113.331 156.956 113.038 157.619 112.031V112.019C157.829 111.684 157.945 111.298 157.954 110.903C157.964 110.507 157.867 110.117 157.673 109.772C157.479 109.427 157.196 109.141 156.853 108.943C156.51 108.746 156.121 108.645 155.725 108.65H155.713ZM124.525 120.7L96.4 137.375V149.875L124.525 133.2V120.7ZM176.931 123.075C176.562 123.078 176.2 123.175 175.877 123.355C175.555 123.535 175.284 123.793 175.088 124.106V124.119C174.789 124.594 174.685 125.167 174.796 125.717C174.908 126.267 175.227 126.753 175.688 127.075L175.769 127.138C176.264 127.445 176.859 127.546 177.428 127.42C177.997 127.294 178.494 126.95 178.812 126.463C179.025 126.128 179.144 125.742 179.156 125.346C179.167 124.95 179.072 124.558 178.879 124.211C178.686 123.865 178.404 123.577 178.061 123.378C177.718 123.179 177.328 123.077 176.931 123.081V123.075ZM152.7 132.044C152.351 132.064 152.012 132.167 151.711 132.344C151.41 132.521 151.156 132.767 150.969 133.063C150.765 133.396 150.653 133.777 150.644 134.167C150.635 134.557 150.729 134.943 150.917 135.286C151.104 135.628 151.379 135.915 151.713 136.117C152.047 136.319 152.428 136.43 152.819 136.438C155.831 136.438 155.713 131.875 152.694 132.044H152.7ZM176.931 147.525C176.563 147.528 176.201 147.623 175.879 147.802C175.556 147.981 175.284 148.238 175.088 148.55C174.784 149.025 174.676 149.599 174.785 150.152C174.894 150.706 175.213 151.195 175.675 151.519L175.769 151.581C176.264 151.883 176.858 151.98 177.424 151.852C177.99 151.724 178.483 151.38 178.8 150.894C179.009 150.56 179.125 150.176 179.135 149.782C179.146 149.389 179.05 148.999 178.858 148.655C178.667 148.311 178.386 148.024 178.046 147.826C177.706 147.627 177.319 147.523 176.925 147.525H176.931ZM149.588 169.988C149.218 170 148.858 170.105 148.541 170.292C148.223 170.48 147.957 170.745 147.769 171.062C147.62 171.309 147.522 171.582 147.479 171.866C147.436 172.15 147.45 172.44 147.519 172.719C147.619 173.122 147.832 173.488 148.132 173.775C148.432 174.062 148.807 174.259 149.214 174.342C149.621 174.425 150.043 174.391 150.431 174.244C150.82 174.097 151.159 173.844 151.409 173.512C151.659 173.181 151.811 172.785 151.846 172.371C151.88 171.957 151.798 171.542 151.606 171.174C151.415 170.805 151.124 170.498 150.765 170.288C150.407 170.078 149.996 169.974 149.581 169.988H149.588ZM176.931 174.919C176.563 174.921 176.201 175.017 175.879 175.196C175.556 175.375 175.284 175.632 175.088 175.944V175.956C174.791 176.431 174.686 177.001 174.795 177.551C174.905 178.1 175.219 178.587 175.675 178.912L175.769 178.975C176.263 179.278 176.855 179.377 177.421 179.251C177.987 179.125 178.481 178.784 178.8 178.3C179.011 177.966 179.128 177.582 179.139 177.187C179.15 176.792 179.055 176.402 178.863 176.057C178.671 175.711 178.39 175.424 178.049 175.225C177.708 175.026 177.32 174.922 176.925 174.925L176.931 174.919ZM159.412 190.469V190.481C158.901 190.486 158.407 190.672 158.019 191.006C157.675 191.299 157.43 191.69 157.316 192.126C157.202 192.563 157.225 193.024 157.382 193.446C157.539 193.869 157.822 194.234 158.193 194.49C158.564 194.747 159.005 194.884 159.456 194.881C159.984 194.885 160.495 194.696 160.894 194.35C161.112 194.162 161.29 193.933 161.419 193.675C161.548 193.418 161.624 193.137 161.644 192.85C161.667 192.548 161.628 192.244 161.528 191.958C161.429 191.672 161.272 191.409 161.067 191.187C160.862 190.964 160.613 190.786 160.336 190.663C160.058 190.541 159.759 190.477 159.456 190.475C159.442 190.475 159.427 190.475 159.412 190.475V190.469Z" fill="url(#paint1_linear_36_2)" style="mix-blend-mode:darken" shape-rendering="crispEdges"/>
</g>
<defs>
<filter id="filter0_d_36_2" x="0" y="0" width="256" height="314" filterUnits="userSpaceOnUse" color-interpolation-filters="sRGB">
<feFlood flood-opacity="0" result="BackgroundImageFix"/>
<feColorMatrix in="SourceAlpha" type="matrix" values="0 0 0 0 0 0 0 0 0 0 0 0 0 0 0 0 0 0 127 0" result="hardAlpha"/>
<feOffset dy="4"/>
<feGaussianBlur stdDeviation="2"/>
<feComposite in2="hardAlpha" operator="out"/>
<feColorMatrix type="matrix" values="0 0 0 0 0 0 0 0 0 0 0 0 0 0 0 0 0 0 0.25 0"/>
<feBlend mode="normal" in2="BackgroundImageFix" result="effect1_dropShadow_36_2"/>
<feBlend mode="normal" in="SourceGraphic" in2="effect1_dropShadow_36_2" result="shape"/>
</filter>
<filter id="filter1_d_36_2" x="57" y="78" width="140.275" height="158" filterUnits="userSpaceOnUse" color-interpolation-filters="sRGB">
<feFlood flood-opacity="0" result="BackgroundImageFix"/>
<feColorMatrix in="SourceAlpha" type="matrix" values="0 0 0 0 0 0 0 0 0 0 0 0 0 0 0 0 0 0 127 0" result="hardAlpha"/>
<feOffset dy="4"/>
<feGaussianBlur stdDeviation="2"/>
<feComposite in2="hardAlpha" operator="out"/>
<feColorMatrix type="matrix" values="0 0 0 0 0 0 0 0 0 0 0 0 0 0 0 0 0 0 0.25 0"/>
<feBlend mode="normal" in2="BackgroundImageFix" result="effect1_dropShadow_36_2"/>
<feBlend mode="normal" in="SourceGraphic" in2="effect1_dropShadow_36_2" result="shape"/>
</filter>
<linearGradient id="paint0_linear_36_2" x1="128" y1="0" x2="128" y2="306" gradientUnits="userSpaceOnUse">
<stop stop-color="#F764E8"/>
<stop offset="1" stop-color="#5F63C1"/>
</linearGradient>
<linearGradient id="paint1_linear_36_2" x1="127.138" y1="78" x2="127.138" y2="228" gradientUnits="userSpaceOnUse">
<stop stop-color="#F764E8"/>
<stop offset="1" stop-color="#5F63C1"/>
</linearGradient>
</defs>
</svg>
