<svg width="82" height="82" viewBox="0 0 82 82" fill="none" xmlns="http://www.w3.org/2000/svg">
<g filter="url(#filter0_d_26_285)">
<path fill-rule="evenodd" clip-rule="evenodd" d="M34 0C17.4315 0 4 13.4315 4 30V44C4 60.5685 17.4315 74 34 74H48C64.5685 74 78 60.5685 78 44V30C78 13.4315 64.5685 0 48 0H34ZM43.0769 36.134L65.8942 22.9604C66.5609 22.5755 67.3942 23.0566 67.3942 23.8264V50.1736C67.3942 50.9434 66.5609 51.4245 65.8942 51.0396L43.0769 37.866C42.4102 37.4811 42.4102 36.5189 43.0769 36.134ZM42.5769 38.732C41.2436 37.9622 41.2436 36.0377 42.5769 35.2679L65.3942 22.0944C66.7275 21.3246 68.3942 22.2868 68.3942 23.8264V50.1736C68.3942 51.7132 66.7275 52.6754 65.3942 51.9056L42.5769 38.732ZM38.8558 22.9604L16.0385 36.134C15.3718 36.5189 15.3718 37.4811 16.0385 37.866L38.8558 51.0396C39.5224 51.4245 40.3558 50.9434 40.3558 50.1736V23.8264C40.3558 23.0566 39.5224 22.5755 38.8558 22.9604ZM15.5385 35.2679C14.2051 36.0377 14.2051 37.9622 15.5385 38.732L38.3558 51.9056C39.6891 52.6754 41.3558 51.7132 41.3558 50.1736V23.8264C41.3558 22.2868 39.6891 21.3246 38.3558 22.0944L15.5385 35.2679ZM36.1346 3.13462H45.1538C61.1701 3.13462 74.1538 16.1184 74.1538 32.1346V41.1539C74.1538 57.1701 61.1701 70.1539 45.1538 70.1539H36.1346C20.1183 70.1539 7.13458 57.1701 7.13458 41.1538V32.1346C7.13458 16.1183 20.1183 3.13462 36.1346 3.13462ZM6.13458 32.1346C6.13458 15.5661 19.566 2.13462 36.1346 2.13462H45.1538C61.7224 2.13462 75.1538 15.5661 75.1538 32.1346V41.1539C75.1538 57.7224 61.7224 71.1539 45.1538 71.1539H36.1346C19.566 71.1539 6.13458 57.7224 6.13458 41.1538V32.1346Z" fill="url(#paint0_linear_26_285)" style="mix-blend-mode:darken"/>
</g>
<defs>
<filter id="filter0_d_26_285" x="0" y="0" width="82" height="82" filterUnits="userSpaceOnUse" color-interpolation-filters="sRGB">
<feFlood flood-opacity="0" result="BackgroundImageFix"/>
<feColorMatrix in="SourceAlpha" type="matrix" values="0 0 0 0 0 0 0 0 0 0 0 0 0 0 0 0 0 0 127 0" result="hardAlpha"/>
<feOffset dy="4"/>
<feGaussianBlur stdDeviation="2"/>
<feComposite in2="hardAlpha" operator="out"/>
<feColorMatrix type="matrix" values="0 0 0 0 0 0 0 0 0 0 0 0 0 0 0 0 0 0 0.25 0"/>
<feBlend mode="normal" in2="BackgroundImageFix" result="effect1_dropShadow_26_285"/>
<feBlend mode="normal" in="SourceGraphic" in2="effect1_dropShadow_26_285" result="shape"/>
</filter>
<linearGradient id="paint0_linear_26_285" x1="16" y1="-20" x2="16" y2="54" gradientUnits="userSpaceOnUse">
<stop stop-color="#F764E8"/>
<stop offset="1" stop-color="#5F63C1"/>
</linearGradient>
</defs>
</svg>
